<svg width="18" height="11" viewBox="0 0 18 11" fill="none" xmlns="http://www.w3.org/2000/svg">
<path fill-rule="evenodd" clip-rule="evenodd" d="M14.5201 0.993045C14.4964 1.11222 14.4964 1.25554 14.4964 1.54217V9.45863C14.4964 9.74527 14.4964 9.88858 14.5201 10.0078C14.6174 10.4972 15 10.8797 15.4894 10.9771C15.6086 11.0008 15.7519 11.0008 16.0385 11.0008C16.3252 11.0008 16.4685 11.0008 16.5877 10.9771C17.0771 10.8797 17.4597 10.4972 17.557 10.0078C17.5807 9.88858 17.5807 9.74527 17.5807 9.45864V1.54217C17.5807 1.25554 17.5807 1.11222 17.557 0.993045C17.4597 0.503634 17.0771 0.121056 16.5877 0.0237059C16.4685 0 16.3252 0 16.0385 0C15.7519 0 15.6086 0 15.4894 0.0237059C15 0.121056 14.6174 0.503634 14.5201 0.993045ZM9.66425 4.00964C9.66425 3.72301 9.66425 3.57969 9.68796 3.46052C9.78531 2.97111 10.1679 2.58853 10.6573 2.49118C10.7765 2.46747 10.9198 2.46747 11.2064 2.46747C11.4931 2.46747 11.6364 2.46747 11.7555 2.49118C12.245 2.58853 12.6275 2.97111 12.7249 3.46052C12.7486 3.57969 12.7486 3.72301 12.7486 4.00964V9.45864C12.7486 9.74527 12.7486 9.88859 12.7249 10.0078C12.6275 10.4972 12.245 10.8798 11.7555 10.9771C11.6364 11.0008 11.4931 11.0008 11.2064 11.0008C10.9198 11.0008 10.7765 11.0008 10.6573 10.9771C10.1679 10.8798 9.78531 10.4972 9.68796 10.0078C9.66425 9.88859 9.66425 9.74527 9.66425 9.45864V4.00964ZM4.95863 5.82518C4.93493 5.94436 4.93493 6.08767 4.93493 6.3743V9.45864C4.93493 9.74527 4.93493 9.88859 4.95863 10.0078C5.05598 10.4972 5.43856 10.8798 5.92797 10.9771C6.04715 11.0008 6.19047 11.0008 6.4771 11.0008C6.76373 11.0008 6.90704 11.0008 7.02622 10.9771C7.51563 10.8798 7.89821 10.4972 7.99556 10.0078C8.01926 9.88859 8.01926 9.74527 8.01926 9.45864V6.3743C8.01926 6.08767 8.01926 5.94436 7.99556 5.82518C7.89821 5.33577 7.51563 4.95319 7.02622 4.85584C6.90704 4.83213 6.76373 4.83213 6.4771 4.83213C6.19047 4.83213 6.04715 4.83213 5.92797 4.85584C5.43856 4.95319 5.05598 5.33577 4.95863 5.82518ZM0.0237059 7.8814C0 8.00058 0 8.1439 0 8.43053V9.45864C0 9.74527 0 9.88859 0.0237059 10.0078C0.121056 10.4972 0.503634 10.8798 0.993045 10.9771C1.11222 11.0008 1.25554 11.0008 1.54217 11.0008C1.8288 11.0008 1.97211 11.0008 2.09129 10.9771C2.5807 10.8798 2.96328 10.4972 3.06063 10.0078C3.08434 9.88859 3.08434 9.74527 3.08434 9.45864V8.43053C3.08434 8.1439 3.08434 8.00058 3.06063 7.8814C2.96328 7.39199 2.5807 7.00941 2.09129 6.91206C1.97211 6.88836 1.8288 6.88836 1.54217 6.88836C1.25554 6.88836 1.11222 6.88836 0.993045 6.91206C0.503634 7.00941 0.121056 7.39199 0.0237059 7.8814Z" fill="#1F2024"/>
</svg>
